<svg width="22" height="12" viewBox="0 0 22 12" fill="none" xmlns="http://www.w3.org/2000/svg">
<path d="M0.0126953 5.99609V5.71582C0.0126953 5.32389 0.135742 5.00033 0.381836 4.74512C0.632487 4.48991 0.972005 4.3623 1.40039 4.3623C1.83333 4.3623 2.17513 4.48991 2.42578 4.74512C2.67643 5.00033 2.80176 5.32389 2.80176 5.71582V5.99609C2.80176 6.38346 2.67643 6.70475 2.42578 6.95996C2.17969 7.21061 1.84017 7.33594 1.40723 7.33594C0.978841 7.33594 0.639323 7.21061 0.388672 6.95996C0.138021 6.70475 0.0126953 6.38346 0.0126953 5.99609ZM9.69238 6.2627L8.68066 6.00293L9.17969 1.04688H14.2861V2.21582H10.2529L9.95215 4.92285C10.1344 4.81803 10.3646 4.72005 10.6426 4.62891C10.9251 4.53776 11.2487 4.49219 11.6133 4.49219C12.0736 4.49219 12.486 4.57194 12.8506 4.73145C13.2152 4.88639 13.5251 5.1097 13.7803 5.40137C14.04 5.69303 14.2383 6.04395 14.375 6.4541C14.5117 6.86426 14.5801 7.32227 14.5801 7.82812C14.5801 8.30664 14.514 8.74642 14.3818 9.14746C14.2542 9.5485 14.0605 9.89941 13.8008 10.2002C13.541 10.4964 13.2129 10.7266 12.8164 10.8906C12.4245 11.0547 11.9619 11.1367 11.4287 11.1367C11.0277 11.1367 10.6471 11.082 10.2871 10.9727C9.93164 10.8587 9.61263 10.6878 9.33008 10.46C9.05208 10.2275 8.82422 9.94043 8.64648 9.59863C8.47331 9.25228 8.36393 8.84668 8.31836 8.38184H9.52148C9.57617 8.75553 9.68555 9.06999 9.84961 9.3252C10.0137 9.5804 10.2279 9.77409 10.4922 9.90625C10.7611 10.0339 11.0732 10.0977 11.4287 10.0977C11.7295 10.0977 11.9961 10.0452 12.2285 9.94043C12.4609 9.83561 12.6569 9.68522 12.8164 9.48926C12.9759 9.29329 13.0967 9.05632 13.1787 8.77832C13.2653 8.50033 13.3086 8.18815 13.3086 7.8418C13.3086 7.52734 13.2653 7.23568 13.1787 6.9668C13.0921 6.69792 12.9622 6.46322 12.7891 6.2627C12.6204 6.06217 12.4131 5.90723 12.167 5.79785C11.9209 5.68392 11.6383 5.62695 11.3193 5.62695C10.8955 5.62695 10.5742 5.68392 10.3555 5.79785C10.1413 5.91178 9.92025 6.06673 9.69238 6.2627ZM17.3691 0.5V11H16.1045V0.5H17.3691ZM17.0684 7.02148L16.542 7.00098C16.5465 6.49512 16.6217 6.02799 16.7676 5.59961C16.9134 5.16667 17.1185 4.79069 17.3828 4.47168C17.6471 4.15267 17.9616 3.90658 18.3262 3.7334C18.6953 3.55566 19.1032 3.4668 19.5498 3.4668C19.9144 3.4668 20.2425 3.51693 20.5342 3.61719C20.8258 3.71289 21.0742 3.86784 21.2793 4.08203C21.4889 4.29622 21.6484 4.57422 21.7578 4.91602C21.8672 5.25326 21.9219 5.66569 21.9219 6.15332V11H20.6504V6.13965C20.6504 5.75228 20.5934 5.44238 20.4795 5.20996C20.3656 4.97298 20.1992 4.80208 19.9805 4.69727C19.7617 4.58789 19.4928 4.5332 19.1738 4.5332C18.8594 4.5332 18.5723 4.59928 18.3125 4.73145C18.0573 4.86361 17.8363 5.0459 17.6494 5.27832C17.4671 5.51074 17.3236 5.77734 17.2188 6.07812C17.1185 6.37435 17.0684 6.6888 17.0684 7.02148Z" fill="#8E8E8E"/>
</svg>
